<svg width="300" height="200" viewBox="0 0 300 200" fill="none" xmlns="http://www.w3.org/2000/svg">
<g clip-path="url(#clip0)">
<path d="M150.316 170.175C129.989 170.175 110.291 164.305 94.5785 153.565C78.8657 142.825 68.1103 127.88 64.1448 111.276C60.1793 94.6719 63.2491 77.4364 72.8311 62.5062C82.4131 47.576 97.9144 35.8747 116.694 29.3962C135.473 22.9177 156.369 22.0628 175.82 26.9771C195.272 31.8914 212.076 42.2709 223.368 56.347C234.661 70.4232 239.745 87.325 237.752 104.173C235.76 121.02 226.815 136.772 212.442 148.742C204.302 155.559 194.62 160.962 183.956 164.641C173.292 168.32 161.858 170.201 150.316 170.175V170.175ZM150.316 24.3885C102.243 24.3885 63.1319 56.9621 63.1319 97.0003C63.1319 137.039 102.243 169.612 150.316 169.612C198.389 169.612 237.5 137.039 237.5 97.0003C237.5 56.9621 198.389 24.3885 150.316 24.3885V24.3885Z" fill="#CCCCCC"/>
<path d="M182.939 181.148V107.429H117.061V181.148H182.939Z" fill="#2F2E41"/>
<path d="M194.257 105.178H105.743V134.441H194.257V105.178Z" fill="#3F3D56"/>
<path d="M194.257 137.817H105.743V167.08H194.257V137.817Z" fill="#3F3D56"/>
<path d="M194.257 170.456H105.743V199.719H194.257V170.456Z" fill="#3F3D56"/>
<path d="M194.257 117.585H105.743V122.087H194.257V117.585Z" fill="#6C63FF"/>
<path d="M194.257 150.225H105.743V154.727H194.257V150.225Z" fill="#6C63FF"/>
<path d="M194.257 182.864H105.743V187.366H194.257V182.864Z" fill="#6C63FF"/>
<path d="M177.027 111.087C178.147 111.087 179.054 110.331 179.054 109.399C179.054 108.466 178.147 107.71 177.027 107.71C175.908 107.71 175 108.466 175 109.399C175 110.331 175.908 111.087 177.027 111.087Z" fill="#6C63FF"/>
<path d="M184.122 111.087C185.241 111.087 186.149 110.331 186.149 109.399C186.149 108.466 185.241 107.71 184.122 107.71C183.002 107.71 182.095 108.466 182.095 109.399C182.095 110.331 183.002 111.087 184.122 111.087Z" fill="#6C63FF"/>
<path d="M191.216 111.087C192.335 111.087 193.243 110.331 193.243 109.399C193.243 108.466 192.335 107.71 191.216 107.71C190.096 107.71 189.189 108.466 189.189 109.399C189.189 110.331 190.096 111.087 191.216 111.087Z" fill="#6C63FF"/>
<path d="M177.027 143.164C178.147 143.164 179.054 142.408 179.054 141.475C179.054 140.543 178.147 139.787 177.027 139.787C175.908 139.787 175 140.543 175 141.475C175 142.408 175.908 143.164 177.027 143.164Z" fill="#6C63FF"/>
<path d="M184.122 143.164C185.241 143.164 186.149 142.408 186.149 141.475C186.149 140.543 185.241 139.787 184.122 139.787C183.002 139.787 182.095 140.543 182.095 141.475C182.095 142.408 183.002 143.164 184.122 143.164Z" fill="#6C63FF"/>
<path d="M191.216 143.164C192.335 143.164 193.243 142.408 193.243 141.475C193.243 140.543 192.335 139.787 191.216 139.787C190.096 139.787 189.189 140.543 189.189 141.475C189.189 142.408 190.096 143.164 191.216 143.164Z" fill="#6C63FF"/>
<path d="M177.027 175.24C178.147 175.24 179.054 174.484 179.054 173.552C179.054 172.619 178.147 171.863 177.027 171.863C175.908 171.863 175 172.619 175 173.552C175 174.484 175.908 175.24 177.027 175.24Z" fill="#6C63FF"/>
<path d="M184.122 175.24C185.241 175.24 186.149 174.484 186.149 173.552C186.149 172.619 185.241 171.863 184.122 171.863C183.002 171.863 182.095 172.619 182.095 173.552C182.095 174.484 183.002 175.24 184.122 175.24Z" fill="#6C63FF"/>
<path d="M191.216 175.24C192.335 175.24 193.243 174.484 193.243 173.552C193.243 172.619 192.335 171.863 191.216 171.863C190.096 171.863 189.189 172.619 189.189 173.552C189.189 174.484 190.096 175.24 191.216 175.24Z" fill="#6C63FF"/>
<path d="M300 199.438H0V200H300V199.438Z" fill="#3F3D56"/>
<path d="M81.716 76.2695V128.602C81.7157 129.697 81.1934 130.747 80.2639 131.521C79.3343 132.295 78.0737 132.73 76.7591 132.73H52.3408C51.0259 132.73 49.7648 132.296 48.8348 131.521C47.9049 130.747 47.3822 129.697 47.3818 128.602V76.2695C47.3822 75.1743 47.9049 74.1242 48.8348 73.35C49.7648 72.5758 51.0259 72.141 52.3408 72.1411H55.3029C55.1574 72.439 55.1021 72.7621 55.1417 73.082C55.1813 73.4019 55.3146 73.7088 55.53 73.9757C55.7453 74.2426 56.0361 74.4614 56.3768 74.6128C56.7174 74.7642 57.0975 74.8436 57.4836 74.844H71.4054C71.7915 74.8436 72.1716 74.7642 72.5123 74.6128C72.8529 74.4614 73.1437 74.2426 73.3591 73.9757C73.5744 73.7088 73.7078 73.4019 73.7474 73.082C73.787 72.7621 73.7316 72.439 73.5862 72.1411H76.7591C78.0737 72.1413 79.3343 72.5764 80.2639 73.3505C81.1934 74.1247 81.7157 75.1746 81.716 76.2695V76.2695Z" fill="#E6E6E6"/>
<path d="M80.0894 82.1348H49.0083V118.15H80.0894V82.1348Z" fill="white"/>
<path d="M70.2383 106.9H57.833V107.491H70.2383V106.9Z" fill="#E6E6E6"/>
<path d="M77.0153 109.068H57.8203V109.658H77.0153V109.068Z" fill="#6C63FF"/>
<path d="M72.8839 111.11H57.8203V111.701H72.8839V111.11Z" fill="#E6E6E6"/>
<path d="M66.6813 113.153H57.8203V113.743H66.6813V113.153Z" fill="#E6E6E6"/>
<path d="M71.1117 115.195H57.8203V115.786H71.1117V115.195Z" fill="#E6E6E6"/>
<path d="M53.6248 106.73H52.207V107.911H53.6248V106.73Z" fill="#E6E6E6"/>
<path d="M53.6248 108.773H52.207V109.954H53.6248V108.773Z" fill="#6C63FF"/>
<path d="M53.6248 110.815H52.207V111.996H53.6248V110.815Z" fill="#E6E6E6"/>
<path d="M53.6248 112.857H52.207V114.038H53.6248V112.857Z" fill="#E6E6E6"/>
<path d="M53.6248 114.9H52.207V116.081H53.6248V114.9Z" fill="#E6E6E6"/>
<path d="M70.861 86.6367H58.3618V97.0467H70.861V86.6367Z" fill="#E6E6E6"/>
<path d="M191.552 0.0390625H108.483V44.3478H191.552V0.0390625Z" fill="#E6E6E6"/>
<path d="M183.618 12.4351H114.746V34.1105H183.618V12.4351Z" fill="white"/>
<path d="M143.823 16.1904H127.293V16.9771H143.823V16.1904Z" fill="#E6E6E6"/>
<path d="M152.854 19.0791H127.277V19.8658H152.854V19.0791Z" fill="#6C63FF"/>
<path d="M147.349 21.8003H127.277V22.587H147.349V21.8003Z" fill="#E6E6E6"/>
<path d="M139.084 24.5215H127.277V25.3081H139.084V24.5215Z" fill="#E6E6E6"/>
<path d="M144.987 27.2427H127.277V28.0293H144.987V27.2427Z" fill="#E6E6E6"/>
<path d="M121.687 15.9644H119.798V17.5377H121.687V15.9644Z" fill="#E6E6E6"/>
<path d="M121.687 18.6855H119.798V20.2589H121.687V18.6855Z" fill="#6C63FF"/>
<path d="M121.687 21.4067H119.798V22.9801H121.687V21.4067Z" fill="#E6E6E6"/>
<path d="M121.687 24.1284H119.798V25.7017H121.687V24.1284Z" fill="#E6E6E6"/>
<path d="M121.687 26.8496H119.798V28.4229H121.687V26.8496Z" fill="#E6E6E6"/>
<path d="M180.238 15.1509H163.326V29.2359H180.238V15.1509Z" fill="#E6E6E6"/>
<path d="M191.517 0H108.448V2.93921H191.517V0Z" fill="#6C63FF"/>
<path d="M111.07 2.09259C111.461 2.09259 111.779 1.82844 111.779 1.50259C111.779 1.17675 111.461 0.912598 111.07 0.912598C110.679 0.912598 110.362 1.17675 110.362 1.50259C110.362 1.82844 110.679 2.09259 111.07 2.09259Z" fill="white"/>
<path d="M113.553 2.09259C113.944 2.09259 114.262 1.82844 114.262 1.50259C114.262 1.17675 113.944 0.912598 113.553 0.912598C113.162 0.912598 112.845 1.17675 112.845 1.50259C112.845 1.82844 113.162 2.09259 113.553 2.09259Z" fill="white"/>
<path d="M116.036 2.09259C116.427 2.09259 116.744 1.82844 116.744 1.50259C116.744 1.17675 116.427 0.912598 116.036 0.912598C115.645 0.912598 115.328 1.17675 115.328 1.50259C115.328 1.82844 115.645 2.09259 116.036 2.09259Z" fill="white"/>
<path d="M247.178 82.9502H226.908V91.6727H247.178V82.9502Z" fill="#E6E6E6"/>
<path d="M247.178 114.182H226.908V122.905H247.178V114.182Z" fill="#E6E6E6"/>
<path d="M237.043 116.996C246.372 116.996 253.935 110.697 253.935 102.927C253.935 95.1576 246.372 88.8589 237.043 88.8589C227.714 88.8589 220.151 95.1576 220.151 102.927C220.151 110.697 227.714 116.996 237.043 116.996Z" fill="#E6E6E6"/>
<path d="M237.043 113.901C244.32 113.901 250.219 108.988 250.219 102.928C250.219 96.8671 244.32 91.9541 237.043 91.9541C229.767 91.9541 223.868 96.8671 223.868 102.928C223.868 108.988 229.767 113.901 237.043 113.901Z" fill="white"/>
<path d="M242.947 99.9209H232.729V100.407H242.947V99.9209Z" fill="#E2E2E2"/>
<path d="M248.53 101.707H232.718V102.193H248.53V101.707Z" fill="#6C63FF"/>
<path d="M245.127 103.389H232.718V103.875H245.127V103.389Z" fill="#E2E2E2"/>
<path d="M240.017 105.071H232.718V105.557H240.017V105.071Z" fill="#E2E2E2"/>
<path d="M243.667 106.753H232.718V107.24H243.667V106.753Z" fill="#E2E2E2"/>
<path d="M229.263 99.7808H228.095V100.753H229.263V99.7808Z" fill="#E2E2E2"/>
<path d="M229.263 101.463H228.095V102.436H229.263V101.463Z" fill="#6C63FF"/>
<path d="M229.263 103.146H228.095V104.118H229.263V103.146Z" fill="#E2E2E2"/>
<path d="M229.263 104.828H228.095V105.8H229.263V104.828Z" fill="#E2E2E2"/>
<path d="M229.263 106.51H228.095V107.483H229.263V106.51Z" fill="#E2E2E2"/>
</g>
<defs>
<clipPath id="clip0">
<rect width="300" height="200" fill="white"/>
</clipPath>
</defs>
</svg>
