<svg width="300" height="200" viewBox="0 0 300 200" fill="none" xmlns="http://www.w3.org/2000/svg">
<path d="M296.925 0.378906H3.17745C2.81094 0.378786 2.448 0.464262 2.10937 0.630445C1.77073 0.796628 1.46305 1.04027 1.20389 1.34743C0.944727 1.6546 0.739165 2.01928 0.598954 2.42064C0.458742 2.822 0.386617 3.25216 0.386719 3.68656V196.633C0.386617 197.068 0.458742 197.498 0.598954 197.899C0.739165 198.301 0.944727 198.665 1.20389 198.972C1.46305 199.28 1.77073 199.523 2.10937 199.689C2.448 199.856 2.81094 199.941 3.17745 199.941H296.925C297.292 199.941 297.655 199.856 297.993 199.689C298.332 199.523 298.64 199.28 298.899 198.972C299.158 198.665 299.364 198.301 299.504 197.899C299.644 197.498 299.716 197.068 299.716 196.633V3.68656C299.716 3.25216 299.644 2.822 299.504 2.42064C299.364 2.01928 299.158 1.6546 298.899 1.34743C298.64 1.04027 298.332 0.796628 297.993 0.630445C297.655 0.464262 297.292 0.378786 296.925 0.378906V0.378906ZM298.786 196.633C298.786 196.923 298.738 197.21 298.644 197.477C298.551 197.745 298.414 197.988 298.241 198.193C298.068 198.398 297.863 198.56 297.637 198.671C297.412 198.782 297.17 198.839 296.925 198.838H3.17745C2.93311 198.839 2.69116 198.782 2.4654 198.671C2.23965 198.56 2.03452 198.398 1.86174 198.193C1.68897 197.988 1.55193 197.745 1.45845 197.477C1.36498 197.21 1.3169 196.923 1.31696 196.633V3.68656C1.31689 3.39696 1.36498 3.11018 1.45845 2.84261C1.55193 2.57504 1.68897 2.33192 1.86174 2.12714C2.03452 1.92236 2.23965 1.75994 2.4654 1.64915C2.69116 1.53836 2.93311 1.48138 3.17745 1.48146H296.925C297.17 1.48138 297.412 1.53836 297.637 1.64915C297.863 1.75994 298.068 1.92236 298.241 2.12714C298.414 2.33192 298.551 2.57504 298.644 2.84261C298.738 3.11018 298.786 3.39696 298.786 3.68656V196.633Z" fill="#E6E6E6"/>
<path d="M43.2001 0.666504H45.6001V200H43.2001V0.666504Z" fill="#E6E6E6"/>
<path d="M166.409 26.7508L61.9033 128.249L62.4449 129.032L166.951 27.5341L166.409 26.7508Z" fill="#E6E6E6"/>
<path d="M62.4594 26.7327L61.916 27.5142L166.395 129.558L166.938 128.776L62.4594 26.7327Z" fill="#E6E6E6"/>
<path d="M165.134 25.3398H63.4506C62.6577 25.3409 61.8976 25.7147 61.3369 26.3793C60.7763 27.0438 60.4609 27.9447 60.46 28.8845V126.616C60.4609 127.555 60.7763 128.456 61.337 129.121C61.8976 129.785 62.6578 130.159 63.4506 130.16H165.134C165.927 130.159 166.687 129.785 167.248 129.121C167.808 128.456 168.124 127.555 168.125 126.616V28.8845C168.124 27.9447 167.808 27.0437 167.248 26.3792C166.687 25.7147 165.927 25.3409 165.134 25.3398V25.3398ZM63.4506 129.147C62.8843 129.147 62.3413 128.88 61.9409 128.405C61.5404 127.93 61.3151 127.287 61.3144 126.616V28.8845C61.3151 28.2132 61.5404 27.5697 61.9408 27.0951C62.3413 26.6204 62.8843 26.3534 63.4506 26.3526H165.134C165.7 26.3534 166.243 26.6204 166.644 27.095C167.044 27.5697 167.269 28.2132 167.27 28.8845V126.616C167.269 127.287 167.044 127.93 166.644 128.405C166.243 128.88 165.7 129.147 165.134 129.147H63.4506Z" fill="#E6E6E6"/>
<path d="M184.73 80.3939C183.856 80.4163 183.158 81.5396 183.173 82.9029C183.187 84.2347 183.876 85.309 184.73 85.3309H267.032C267.906 85.3533 268.627 84.2662 268.641 82.9029C268.656 81.5396 267.958 80.4163 267.084 80.3939C267.066 80.3934 267.049 80.3934 267.032 80.3939H184.73Z" fill="#E6E6E6"/>
<path d="M184.73 66.0921C183.856 66.1145 183.158 67.2378 183.173 68.6011C183.187 69.9329 183.876 71.0072 184.73 71.0291H229.343C230.217 71.0515 230.938 69.9645 230.952 68.6011C230.967 67.2378 230.269 66.1145 229.395 66.0921C229.377 66.0917 229.36 66.0917 229.343 66.0921H184.73Z" fill="#6C63FF"/>
<path d="M184.73 95.3773C183.856 95.3997 183.158 96.523 183.173 97.8863C183.187 99.2181 183.876 100.292 184.73 100.314H267.032C267.906 100.337 268.627 99.2496 268.641 97.8863C268.656 96.523 267.958 95.3997 267.084 95.3773C267.066 95.3768 267.049 95.3768 267.032 95.3773H184.73Z" fill="#E6E6E6"/>
<path d="M184.73 110.119C183.856 110.141 183.158 111.264 183.173 112.628C183.187 113.959 183.876 115.034 184.73 115.055H267.032C267.906 115.078 268.627 113.991 268.641 112.628C268.656 111.264 267.958 110.141 267.084 110.119C267.066 110.118 267.049 110.118 267.032 110.119H184.73Z" fill="#E6E6E6"/>
<path d="M184.73 125.102C183.856 125.124 183.158 126.248 183.173 127.611C183.187 128.943 183.876 130.017 184.73 130.039H267.032C267.906 130.061 268.627 128.974 268.641 127.611C268.656 126.248 267.958 125.124 267.084 125.102C267.066 125.101 267.049 125.101 267.032 125.102H184.73Z" fill="#E6E6E6"/>
<path d="M60.6624 140.318C59.7877 140.341 59.0903 141.464 59.1047 142.827C59.1187 144.159 59.808 145.233 60.6624 145.255H267.616C268.491 145.278 269.212 144.191 269.226 142.827C269.241 141.464 268.543 140.341 267.668 140.318C267.651 140.318 267.634 140.318 267.616 140.318H60.6624Z" fill="#E6E6E6"/>
<path d="M60.6624 155.302C59.7877 155.324 59.0903 156.447 59.1047 157.811C59.1187 159.142 59.808 160.217 60.6624 160.239H267.616C268.491 160.261 269.212 159.174 269.226 157.811C269.241 156.447 268.543 155.324 267.668 155.302C267.651 155.301 267.634 155.301 267.616 155.302H60.6624Z" fill="#E6E6E6"/>
<path d="M60.6624 170.043C59.7877 170.065 59.0903 171.189 59.1047 172.552C59.1187 173.884 59.808 174.958 60.6624 174.98H267.616C268.491 175.002 269.212 173.915 269.226 172.552C269.241 171.189 268.543 170.065 267.668 170.043C267.651 170.042 267.634 170.042 267.616 170.043H60.6624Z" fill="#E6E6E6"/>
<path d="M11.3999 18.7943C13.8808 14.7372 18.578 12 23.9641 12C31.9368 12 38.3999 17.9974 38.3999 25.3956C38.3999 30.1257 35.7579 34.2832 31.7686 36.6667" stroke="#3F3D56" stroke-miterlimit="10"/>
<path d="M6.6001 28.3159C6.6001 33.4549 9.89545 37.8955 14.674 40.0002L7.84039 23.0325C7.02721 24.6692 6.60227 26.4794 6.6001 28.3159ZM30.5968 27.6608C30.5968 26.0564 29.9609 24.9452 29.4154 24.0804C28.6892 23.011 28.0088 22.1054 28.0088 21.036C28.0088 19.8426 29.0073 18.7317 30.4142 18.7317C30.4777 18.7317 30.5379 18.7389 30.6001 18.7421C27.8506 16.5062 24.4361 15.3034 20.9258 15.3341C15.9211 15.3341 11.5179 17.6611 8.95637 21.1857C9.29247 21.1948 9.6095 21.201 9.87828 21.201C11.3767 21.201 13.6962 21.0362 13.6962 21.0362C14.4684 20.995 14.5595 22.0229 13.7883 22.1056C13.7883 22.1056 13.012 22.1884 12.1484 22.2294L17.3653 36.2915L20.5006 27.7708L18.2684 22.2291C17.4969 22.1881 16.7661 22.1054 16.7661 22.1054C15.9941 22.0644 16.0846 20.9947 16.8566 21.036C16.8566 21.036 19.2224 21.2008 20.6301 21.2008C22.1282 21.2008 24.448 21.036 24.448 21.036C25.2208 20.9947 25.3116 22.0226 24.5399 22.1054C24.5399 22.1054 23.7622 22.1881 22.9002 22.2291L28.0773 36.1848L29.5059 31.8576C30.1255 30.0619 30.5968 28.7722 30.5968 27.6608H30.5968Z" fill="#6C63FF"/>
<path d="M21.1513 29.4108L16.7998 40.8008C19.7323 41.5757 22.8187 41.5037 25.7132 40.5928C25.6731 40.5364 25.6385 40.4761 25.61 40.4128L21.1513 29.4108ZM33.6231 22C33.689 22.4446 33.7216 22.8937 33.7208 23.3434C33.7208 24.6691 33.4459 26.1595 32.618 28.0229L28.1878 39.5609C32.4996 37.2959 35.3998 33.088 35.3998 28.268C35.3961 26.0504 34.7805 23.8785 33.6231 22L33.6231 22Z" fill="#6C63FF"/>
</svg>
